<svg width="26" height="26" viewBox="0 0 26 26" fill="none" xmlns="http://www.w3.org/2000/svg">
<path d="M17.9935 2.56152H7.20521C5.58908 2.56152 4.2668 3.87331 4.2668 5.49994V20.6014C4.2668 22.228 5.58908 23.5503 7.20521 23.5503H17.9935C19.6201 23.5503 20.9319 22.228 20.9319 20.6014V5.49994C20.9319 3.87331 19.6201 2.56152 17.9935 2.56152ZM8.28617 17.7049H16.9125C17.3533 17.7049 17.6996 18.0617 17.6996 18.492C17.6996 18.9223 17.3533 19.2791 16.9125 19.2791H8.28617C7.8559 19.2791 7.49909 18.9223 7.49909 18.492C7.49909 18.0617 7.8559 17.7049 8.28617 17.7049ZM7.49909 13.0979C7.49909 12.6676 7.8559 12.3108 8.28617 12.3108H16.9125C17.3533 12.3108 17.6996 12.6676 17.6996 13.0979C17.6996 13.5386 17.3533 13.885 16.9125 13.885H8.28617C7.8559 13.885 7.49909 13.5386 7.49909 13.0979ZM16.9125 8.49084H8.28617C7.8559 8.49084 7.49909 8.14453 7.49909 7.70376C7.49909 7.27349 7.8559 6.91669 8.28617 6.91669H16.9125C17.3533 6.91669 17.6996 7.27349 17.6996 7.70376C17.6996 8.14453 17.3533 8.49084 16.9125 8.49084Z" fill="black"/>
</svg>
