<svg width="26" height="26" viewBox="0 0 26 26" fill="none" xmlns="http://www.w3.org/2000/svg">
<path d="M19.535 2.60352H6.58495C4.37064 2.60352 2.56562 4.40855 2.56562 6.62286V19.5729C2.56562 21.7872 4.37064 23.5923 6.58495 23.5923H19.535C21.445 23.5923 23.0401 22.249 23.4494 20.465C23.5124 20.3495 23.5544 20.2236 23.5544 20.0872V6.62286C23.5544 4.40855 21.7494 2.60352 19.535 2.60352ZM20.3221 14.1788C20.3221 14.6091 19.9653 14.9659 19.535 14.9659C19.0943 14.9659 18.748 14.6091 18.748 14.1788V12.017C18.748 11.5867 19.0943 11.2299 19.535 11.2299C19.9653 11.2299 20.3221 11.5867 20.3221 12.017V14.1788ZM5.79787 14.1788V12.017C5.79787 11.5867 6.15468 11.2299 6.58495 11.2299C7.02571 11.2299 7.37203 11.5867 7.37203 12.017V14.1788C7.37203 14.6091 7.02571 14.9659 6.58495 14.9659C6.15468 14.9659 5.79787 14.6091 5.79787 14.1788ZM17.0793 9.86563V16.3302C17.0793 16.7709 16.733 17.1172 16.2923 17.1172C15.862 17.1172 15.5052 16.7709 15.5052 16.3302V9.86563C15.5052 9.42486 15.862 9.07855 16.2923 9.07855C16.733 9.07855 17.0793 9.42486 17.0793 9.86563ZM13.8471 7.70379V18.492C13.8471 18.9223 13.4903 19.2791 13.06 19.2791C12.6297 19.2791 12.2729 18.9223 12.2729 18.492V7.70379C12.2729 7.27352 12.6297 6.91671 13.06 6.91671C13.4903 6.91671 13.8471 7.27352 13.8471 7.70379ZM10.6148 9.86563V16.3302C10.6148 16.7709 10.258 17.1172 9.82774 17.1172C9.38698 17.1172 9.04066 16.7709 9.04066 16.3302V9.86563C9.04066 9.42486 9.38698 9.07855 9.82774 9.07855C10.258 9.07855 10.6148 9.42486 10.6148 9.86563Z" fill="black"/>
</svg>
