<svg width="22" height="21" viewBox="0 0 22 21" fill="none" xmlns="http://www.w3.org/2000/svg">
<path fill-rule="evenodd" clip-rule="evenodd" d="M21.6328 12.4813V20.3604H17.0318V12.9989C17.0318 11.1585 16.3992 9.89322 14.7313 9.89322C13.4661 9.89322 12.7184 10.7559 12.3733 11.5611C12.2583 11.8486 12.2008 12.2512 12.2008 12.6538V20.3604H7.59982C7.59982 20.3604 7.65734 7.88031 7.59982 6.61505H12.2008V8.57045C12.2008 8.57045 12.2008 8.62795 12.1433 8.62795H12.2008V8.57045C12.8334 7.65026 13.8687 6.26997 16.3417 6.26997C19.3323 6.26997 21.6328 8.28289 21.6328 12.4813ZM2.88328 0.00115967C1.33045 0.00115967 0.295227 1.03638 0.295227 2.35915C0.295227 3.68192 1.27294 4.71715 2.82577 4.71715H2.88328C4.49363 4.71715 5.47134 3.68193 5.47134 2.35915C5.41383 1.03638 4.43611 0.00115967 2.88328 0.00115967ZM0.525873 20.3604H5.06935V6.61507H0.525873V20.3604Z" fill="#535353"/>
</svg>
