<svg width="22" height="19" viewBox="0 0 22 19" fill="none" xmlns="http://www.w3.org/2000/svg">
<path fill-rule="evenodd" clip-rule="evenodd" d="M21.6158 2.82602C20.8126 3.17746 20.0093 3.42848 19.1056 3.52889C20.0093 2.97664 20.7121 2.12316 21.0134 1.11907C20.1599 1.62112 19.206 1.97255 18.2521 2.17336C17.4488 1.31989 16.2941 0.767639 15.039 0.767639C12.6292 0.767639 10.6712 2.72561 10.6712 5.13543C10.6712 5.48687 10.7214 5.83829 10.7716 6.13953C7.10661 5.93871 3.8935 4.23175 1.73469 1.57091C1.33305 2.22357 1.13223 2.97664 1.13223 3.77991C1.13223 5.28605 1.8853 6.64157 3.09022 7.44484C2.38735 7.44484 1.68448 7.24403 1.08202 6.89259V6.94279C1.08202 9.05139 2.58817 10.8587 4.59637 11.2604C4.24493 11.3608 3.8433 11.411 3.44165 11.411C3.14043 11.411 2.8894 11.3608 2.63838 11.3106C3.19063 13.0677 4.79719 14.3229 6.75517 14.3731C5.24903 15.5278 3.39145 16.2306 1.33305 16.2306C0.981616 16.2306 0.630184 16.2306 0.278748 16.1804C2.23674 17.4355 4.49596 18.1384 7.0062 18.1384C15.0892 18.1384 19.457 11.4612 19.457 5.68768C19.457 5.48687 19.457 5.28605 19.457 5.13543C20.3105 4.48278 21.0636 3.6795 21.6158 2.82602Z" fill="#535353"/>
</svg>
